<svg xmlns="http://www.w3.org/2000/svg" version="1.1" xmlns:xlink="http://www.w3.org/1999/xlink" xmlns:svgjs="http://svgjs.dev/svgjs" width="1650" height="400" preserveAspectRatio="none" viewBox="0 0 1650 400"><g mask="url(&quot;#SvgjsMask1068&quot;)" fill="none"><rect width="1650" height="400" x="0" y="0" fill="url(&quot;#SvgjsLinearGradient1069&quot;)"></rect><path d="M49.45022832717498 118.6337650004978L-6.653896043473779 160.91125514747105 35.62359410349948 217.0153795181198 91.72771847414825 174.73788937114657z" fill="rgba(28, 83, 142, 0.4)" class="triangle-float2"></path><path d="M652.5980790698782 151.3976377798822L680.5130412627025 54.046595429353914 583.1619989121741 26.13163323652965 555.2470367193499 123.48267558705793z" fill="rgba(28, 83, 142, 0.4)" class="triangle-float1"></path><path d="M367.168,168.031C385.992,167.919,405.715,162.613,415.189,146.347C424.713,129.996,420.335,109.772,410.53,93.588C401.122,78.06,385.323,67.232,367.168,67.087C348.769,66.94,332.221,77.207,322.593,92.887C312.457,109.395,308.264,130.265,318.147,146.925C327.875,163.325,348.1,168.145,367.168,168.031" fill="rgba(28, 83, 142, 0.4)" class="triangle-float2"></path><path d="M616.628,437.03C635.619,436.477,647.757,418.753,656.573,401.923C664.602,386.597,667.928,369.176,660.313,353.64C651.684,336.037,636.232,320.313,616.628,320.433C597.167,320.552,582.926,336.949,573.861,354.17C565.503,370.047,564.211,388.429,572.44,404.373C581.443,421.817,597.006,437.601,616.628,437.03" fill="rgba(28, 83, 142, 0.4)" class="triangle-float2"></path><path d="M296.34064005975773-26.818361808814537L219.4747257351204-24.13414493291144 222.1589426110235 52.73176939172591 299.0248569356608 50.04755251582281z" fill="rgba(28, 83, 142, 0.4)" class="triangle-float3"></path><path d="M1614.983,331.127C1627.399,330.853,1639.216,324.986,1645.335,314.179C1651.371,303.518,1649.946,290.615,1643.979,279.915C1637.834,268.896,1627.593,260.187,1614.983,259.755C1601.662,259.299,1589.077,266.309,1582.33,277.804C1575.5,289.44,1575.174,304.065,1582.22,315.572C1588.986,326.622,1602.029,331.413,1614.983,331.127" fill="rgba(28, 83, 142, 0.4)" class="triangle-float1"></path><path d="M889.267,179.107C918.712,179.595,950.107,170.079,963.863,144.04C977.02,119.136,964.336,90.081,948.66,66.681C935.052,46.369,913.667,34.23,889.267,32.69C861.359,30.928,830.471,34.777,815.289,58.261C799.102,83.298,803.267,116.209,818.833,141.637C833.714,165.947,860.768,178.635,889.267,179.107" fill="rgba(28, 83, 142, 0.4)" class="triangle-float2"></path><path d="M1214.03 236.38 a85.22 85.22 0 1 0 170.44 0 a85.22 85.22 0 1 0 -170.44 0z" fill="rgba(28, 83, 142, 0.4)" class="triangle-float2"></path><path d="M654.001,130.734C680.733,128.759,698.593,106.873,712.816,84.153C728.37,59.307,745.999,30.863,732.953,4.613C718.965,-23.532,685.323,-36.78,654.001,-34.185C626.374,-31.896,609.007,-7.79,594.868,16.055C580.312,40.603,564.843,68.755,577.922,94.12C591.746,120.93,623.919,132.957,654.001,130.734" fill="rgba(28, 83, 142, 0.4)" class="triangle-float3"></path><path d="M352.89173853161407 55.69955702958258L276.58373705220316 66.42394725197033 287.3081272745909 142.73194873138124 363.6161287540018 132.00755850899347z" fill="rgba(28, 83, 142, 0.4)" class="triangle-float2"></path><path d="M1149.549708097958 282.50640857080896L1074.0718663308776 326.08356083288487 1117.6490185929536 401.56140259996533 1193.126860360034 357.9842503378894z" fill="rgba(28, 83, 142, 0.4)" class="triangle-float1"></path><path d="M605.4447421284342 272.1264240356208L678.6592211704772 297.3361908624137 679.866631889645 174.90958888595276z" fill="rgba(28, 83, 142, 0.4)" class="triangle-float3"></path><path d="M716.8244786913874 37.62969781156875L667.8577954195601-18.70002763073886 611.5280699772525 30.26665564108842 660.4947532490798 86.59638108339603z" fill="rgba(28, 83, 142, 0.4)" class="triangle-float3"></path><path d="M1304.150198498316 10.252856929481318L1265.415445289603 25.121735592278974 1307.0861398881561 75.7894260739499z" fill="rgba(28, 83, 142, 0.4)" class="triangle-float3"></path><path d="M1533.024,67.907C1546.469,68.243,1557.306,58.307,1564.146,46.727C1571.128,34.905,1575.104,20.317,1568.11,8.502C1561.211,-3.152,1546.538,-6.737,1533.024,-5.845C1521.093,-5.057,1510.97,2.221,1505.138,12.659C1499.46,22.822,1499.242,34.843,1504.487,45.235C1510.354,56.859,1520.007,67.581,1533.024,67.907" fill="rgba(28, 83, 142, 0.4)" class="triangle-float2"></path><path d="M1321.671,307.23C1347.859,307.587,1373.956,297.363,1387.48,274.935C1401.415,251.824,1399.747,223.02,1386.688,199.403C1373.166,174.949,1349.561,157.659,1321.671,155.921C1290.376,153.971,1255.725,162.678,1240.926,190.322C1226.629,217.028,1241.681,248.258,1258.896,273.183C1273.396,294.176,1296.159,306.882,1321.671,307.23" fill="rgba(28, 83, 142, 0.4)" class="triangle-float1"></path><path d="M643.46 347.62 a106.92 106.92 0 1 0 213.84 0 a106.92 106.92 0 1 0 -213.84 0z" fill="rgba(28, 83, 142, 0.4)" class="triangle-float2"></path><path d="M1015.75 208.73 a112.83 112.83 0 1 0 225.66 0 a112.83 112.83 0 1 0 -225.66 0z" fill="rgba(28, 83, 142, 0.4)" class="triangle-float1"></path></g><defs><mask id="SvgjsMask1068"><rect width="1650" height="400" fill="#ffffff"></rect></mask><linearGradient x1="18.94%" y1="-78.13%" x2="81.06%" y2="178.13%" gradientUnits="userSpaceOnUse" id="SvgjsLinearGradient1069"><stop stop-color="rgba(27, 26, 27, 1)" offset="0"></stop><stop stop-color="rgba(66, 73, 79, 1)" offset="1"></stop></linearGradient><style>
                @keyframes float1 {
                    0%{transform: translate(0, 0)}
                    50%{transform: translate(-10px, 0)}
                    100%{transform: translate(0, 0)}
                }

                .triangle-float1 {
                    animation: float1 5s infinite;
                }

                @keyframes float2 {
                    0%{transform: translate(0, 0)}
                    50%{transform: translate(-5px, -5px)}
                    100%{transform: translate(0, 0)}
                }

                .triangle-float2 {
                    animation: float2 4s infinite;
                }

                @keyframes float3 {
                    0%{transform: translate(0, 0)}
                    50%{transform: translate(0, -10px)}
                    100%{transform: translate(0, 0)}
                }

                .triangle-float3 {
                    animation: float3 6s infinite;
                }
            </style></defs></svg>